<svg id="Capa_1" data-name="Capa 1" xmlns="http://www.w3.org/2000/svg" xmlns:xlink="http://www.w3.org/1999/xlink" viewBox="0 0 1479.34 153.63"><defs><style>.cls-1{fill:#393a35;}.cls-2{fill:url(#linear-gradient);}.cls-3{fill:url(#linear-gradient-2);}.cls-4{fill:url(#linear-gradient-3);}</style><linearGradient id="linear-gradient" x1="3996.51" y1="-1885.37" x2="3997.1" y2="-1885.37" gradientTransform="matrix(0, -251.24, -251.24, 0, -472624.33, 1004241.08)" gradientUnits="userSpaceOnUse"><stop offset="0" stop-color="#be2f18"/><stop offset="0.5" stop-color="#de1f1c"/><stop offset="1" stop-color="#8b181a"/></linearGradient><linearGradient id="linear-gradient-2" x1="3973.05" y1="-1892.95" x2="3973.77" y2="-1892.95" gradientTransform="matrix(85.9, -85.9, -85.9, -85.9, -502886.9, 178833.48)" gradientUnits="userSpaceOnUse"><stop offset="0" stop-color="#be2f18"/><stop offset="0.08" stop-color="#de1f1c"/><stop offset="1" stop-color="#8b181a"/></linearGradient><linearGradient id="linear-gradient-3" x1="3996.51" y1="-1885.34" x2="3997.24" y2="-1885.34" xlink:href="#linear-gradient"/></defs><path class="cls-1" d="M0,123.48V21.26H36.69q16.92,0,26.24,8.42t9.32,23.76q0,15.33-9.32,23.76T36.67,85.61H14.21v37.87ZM14.21,73H35.35q13.53,0,18.12-5.27T58,53.59q0-8.91-4.54-14.18T35.35,34.13H14.21Z"/><path class="cls-1" d="M97.91,105.06Q94.7,96.93,94.7,85.32t3.21-19.75q3.21-8.14,8.74-12.19A36.53,36.53,0,0,1,118,47.64a48.26,48.26,0,0,1,25.32,0,36.48,36.48,0,0,1,11.32,5.74q5.53,4,8.75,12.19t3.21,19.75q0,11.61-3.21,19.74t-8.75,12.19A36.48,36.48,0,0,1,143.3,123,48.26,48.26,0,0,1,118,123a36.53,36.53,0,0,1-11.33-5.74Q101.13,113.2,97.91,105.06Zm12.67-33.84a49.92,49.92,0,0,0-1.67,14.1,50,50,0,0,0,1.67,14.1,16.22,16.22,0,0,0,5,8.22,18,18,0,0,0,6.76,3.57,39,39,0,0,0,16.56,0,18.12,18.12,0,0,0,6.76-3.57,16.22,16.22,0,0,0,5-8.22,50,50,0,0,0,1.67-14.1,49.92,49.92,0,0,0-1.67-14.1q-1.68-5.55-5-8.23a18.27,18.27,0,0,0-6.76-3.57,39,39,0,0,0-16.56,0A18.19,18.19,0,0,0,115.6,63Q112.26,65.68,110.58,71.22Z"/><path class="cls-1" d="M188.58,47h14.21L221,103.57,237.76,47h12.87l17,56.6L283.45,47h14.22l-24,76.48H261L243.82,68.6l-17.28,54.88h-14Z"/><path class="cls-1" d="M322.94,86.15q0-40.35,33.56-40.34h.15q15.24,0,24.37,10t9.11,26.84q0,5.47-.45,10.5H337.15q2.53,19.68,21.43,19.68,15.41,0,26.27-5.75v12.74a67.56,67.56,0,0,1-26.57,5h-.44a43.25,43.25,0,0,1-12.36-1.69,36.5,36.5,0,0,1-11-5.59q-5.34-3.89-8.44-12T322.94,86.15Zm14-5.55H376a36.42,36.42,0,0,0-1.3-7.29,33,33,0,0,0-3.05-7.08,15,15,0,0,0-5.92-5.72,18.84,18.84,0,0,0-9.22-2.13q-9.6,0-14.1,5T336.93,80.6Z"/><path class="cls-1" d="M419.49,123.48v-70q19-7.63,37.06-7.63V58.68a97.07,97.07,0,0,0-23.14,3.21v61.59Z"/><path class="cls-1" d="M478.55,86.15q0-40.35,33.56-40.34h.15q15.25,0,24.37,10t9.11,26.84q0,5.47-.44,10.5H492.76q2.53,19.68,21.43,19.68,15.4,0,26.27-5.75v12.74a67.52,67.52,0,0,1-26.57,5h-.44a43.13,43.13,0,0,1-12.35-1.69,36.39,36.39,0,0,1-11-5.59q-5.35-3.89-8.45-12T478.55,86.15Zm14-5.55H531.6a35.72,35.72,0,0,0-1.3-7.29,32.49,32.49,0,0,0-3-7.08,14.94,14.94,0,0,0-5.91-5.72,18.88,18.88,0,0,0-9.23-2.13q-9.6,0-14.1,5T492.54,80.6Z"/><path class="cls-1" d="M572.06,84.27q0-11.37,3.12-19.34T583.71,53a35.05,35.05,0,0,1,11.06-5.58A44.69,44.69,0,0,1,607,45.81a59.21,59.21,0,0,1,16.26,2.27V21.37h13.92V99.94a24.46,24.46,0,0,1-.49,4.9,28.12,28.12,0,0,1-2.3,6.24,21.54,21.54,0,0,1-4.94,6.65,26.14,26.14,0,0,1-9.3,4.89,45.37,45.37,0,0,1-14.34,2.06,46.55,46.55,0,0,1-8.46-.75,30.27,30.27,0,0,1-8.86-3.37,27.37,27.37,0,0,1-8.23-6.81q-3.43-4.19-5.81-11.78A59.2,59.2,0,0,1,572.06,84.27Zm13.91,0A54.57,54.57,0,0,0,587.64,99c1.12,3.89,2.71,6.74,4.79,8.52a18,18,0,0,0,6.17,3.65,24.05,24.05,0,0,0,7.2,1q17.52,0,17.45-11.38V61.58A42,42,0,0,0,607,58.38a31,31,0,0,0-7.91.89,18,18,0,0,0-6.57,3.42q-3.19,2.53-4.87,7.93A47.08,47.08,0,0,0,586,84.27Z"/><path class="cls-1" d="M735,99.92V21.25H749V48.08a58.16,58.16,0,0,1,16.26-2.27,44.32,44.32,0,0,1,12.17,1.6,35.32,35.32,0,0,1,11,5.58q5.42,4,8.49,11.94T800,84.27a60.25,60.25,0,0,1-2.34,17.7q-2.34,7.59-5.75,11.78a27.21,27.21,0,0,1-8.19,6.81,30,30,0,0,1-8.83,3.37A50.14,50.14,0,0,1,752,122.62a26.11,26.11,0,0,1-9.31-4.9,21.37,21.37,0,0,1-5-6.66,26.68,26.68,0,0,1-2.27-6.28A27.13,27.13,0,0,1,735,99.92Zm13.92.8q0,11.39,17.53,11.38a23.23,23.23,0,0,0,7-1,18,18,0,0,0,6.16-3.65q3.12-2.67,4.79-8.56a54.67,54.67,0,0,0,1.67-14.66,47.08,47.08,0,0,0-1.67-13.65q-1.67-5.4-4.79-7.93a17.55,17.55,0,0,0-6.46-3.42,30.9,30.9,0,0,0-7.95-.89A42,42,0,0,0,749,61.58Z"/><path class="cls-1" d="M821,47h15l20.46,57.28L876.46,47h15l-31.25,84.63q-8.11,22-23.59,22h-.08a50.66,50.66,0,0,1-10.64-1.2V139.79a36.22,36.22,0,0,0,8.56,1.27q9.45,0,15.25-17.64Z"/><path class="cls-1" d="M1283.52,146.53c-5.58,2.89-12.51,1.25-15.4-4.33l-15.75-31h-66c-.58,0-1-.67-1.35-.87l-14.38,31.05a11.35,11.35,0,0,1-10.39,6.57,10.4,10.4,0,0,1-4.82-1.24,11.43,11.43,0,0,1-5.58-15.24L1206.55,7.83c1.93-4,5.78-7.35,10.2-7.35h.2c4.42,0,8.27,3.1,10.39,7l61.38,123.41A11.62,11.62,0,0,1,1283.52,146.53Zm-42.7-58.4-23.49-47-21.75,47Z"/><path class="cls-1" d="M1421.37,103.86c0,23.87-19.25,44.24-42.16,44.24h-43.7c-6.1,0-13-6.86-13-12.83V13.8c0-6.35,7.45-13.32,13.61-13.32h30.8c23.68,0,42.16,18.5,42.16,41.6a43.33,43.33,0,0,1-8.67,25.79C1412.9,75.37,1421.37,89,1421.37,103.86Zm-54.48-80.32h-21.34V60.45h23.84c9.43,0,16.94-9.12,16.94-18.93C1386.33,31.12,1378.05,23.54,1366.89,23.54Zm31.76,79.58c0-10.2-9.81-19.6-21-19.6h-32.12V125h33.66C1389.41,125,1398.65,114.29,1398.65,103.12Z"/><path class="cls-1" d="M1467.71,147.78A11.54,11.54,0,0,1,1456.27,136V13.41a11.54,11.54,0,1,1,23.07,0V136A11.58,11.58,0,0,1,1467.71,147.78Z"/><path class="cls-2" d="M1068.7,141.06l-4.82,2.37-9.5-19.33,10.57-1.21c23.94-2.73,42-23.24,42-47.71V72c0-26.86-20.64-47.9-47-47.9h-37.88l26.51,54.36L1034,104.62,990.57,17.2A11.75,11.75,0,0,1,991,5.71,12.27,12.27,0,0,1,1001.57,0H1060a73.73,73.73,0,0,1,51.73,20.79A70.78,70.78,0,0,1,1133.3,72v3.2a73.49,73.49,0,0,1-63.49,72.67Z"/><path class="cls-3" d="M1013.53,148.52a12.16,12.16,0,0,1-10.51-6.14,12.77,12.77,0,0,1-.21-12.62l32-57.29,30.31,61,0-.15c1-.09,2.07-.2,3.12-.34l1.64,10-14,5.48ZM1044.27,125l-5.71-11.6-6.49,11.6Z"/><path class="cls-4" d="M1055.8,148.52l-29.89-60.18,14.64-26.26,40.92,83.15-9.13,2.18s-.7.17-1.75.37l-.21,0-.22,0a74,74,0,0,1-9.72.67Z"/></svg>